# xmcd
#
# Track frame offsets:
#	182
#	37157
#	60707
#	98807
#	123332
#	141632
#	172082
#	195407
#	224357
#	276707
#
# Disc length: 4331 seconds
#
# Revision: 11
# Processed by: cddbd v1.5.2PL0 Copyright (c) Steve Scherf et al.
# Submitted via: audiograbber 1.83.01
#
DISCID=a610e90a
DTITLE=The London Philharmonic Orchestra - Us And Them - Symphonic Pink Floyd
DYEAR=1995
DGENRE=Classical
TTITLE0=Time
TTITLE1=Brain Damage
TTITLE2=Another Brick In The Wall (Part 2)
TTITLE3=Comfortably Numb
TTITLE4=Breathe
TTITLE5=Money
TTITLE6=The Great Gig In The Sky
TTITLE7=Nobody Home
TTITLE8=Us And Them
TTITLE9=Time (Remix)
EXTD=1995 - Produced by Youth. The London Philharmonic Orchestra - ArrangedEXTD=
EXTD=nby Jaz Coleman - Orchestra conducted by Peter Scholes.
EXTT0=
EXTT1=
EXTT2=
EXTT3=
EXTT4=
EXTT5=
EXTT6=
EXTT7=
EXTT8=
EXTT9=
PLAYORDER=
